PathFileType	4	(X/Y/Z)	7_coords_data.trc
DataRate	CameraRate	NumFrames	NumMarkers	Units	OrigDataRate	OrigDataStartFrame	OrigNumFrames
30.0	30.0	9	21	m	30.0	33	65
Frame#	Time	THUMB_TIP	THUMB_IP	THUMB_MCP	THUMB_CMC	INDEX_TIP	INDEX_DIP	INDEX_PIP	INDEX_MCP	MIDDLE_TIP	MIDDLE_DIP	MIDDLE_PIP	MIDDLE_MCP	RING_TIP	RING_DIP	RING_PIP	RING_MCP	PINKY_TIP	PINKY_DIP	PINKY_PIP	PINKY_MCP	WRIST
X1	Y1	Z1	X2	Y2	Z2	X3	Y3	Z3	X4	Y4	Z4	X5	Y5	Z5	X6	Y6	Z6	X7	Y7	Z7	X8	Y8	Z8	X9	Y9	Z9	X10	Y10	Z10	X11	Y11	Z11	X12	Y12	Z12	X13	Y13	Z13	X14	Y14	Z14	X15	Y15	Z15	X16	Y16	Z16	X17	Y17	Z17	X18	Y18	Z18	X19	Y19	Z19	X20	Y20	Z20	X21	Y21	Z21
32	1.0666666666666667	-0.045244098663330075	-0.08778309631347657	0.986427978515625	-0.039049098968505856	-0.06598699951171876	0.9993270263671875	-0.04689659881591797	-0.04522829818725586	1.0175599975585938	-0.048152099609375	-0.014117899894714356	1.0340699462890626	-0.018600400924682618	-0.02644350051879883	0.8962039794921876	-0.023113399505615233	-0.024327400207519532	0.9187520141601563	-0.02737150001525879	-0.021655599594116212	0.941260009765625	-0.03520399856567383	-0.01401389980316162	0.9764099731445313	-0.02142930030822754	0.025723100662231446	0.887093994140625	-0.0283971004486084	0.02271769905090332	0.9105780029296875	-0.03370759963989258	0.01749810028076172	0.9374039916992187	-0.034464599609375	0.00922821044921875	0.974197998046875	-0.006047520160675049	0.0534208984375	0.911093017578125	-0.013653800010681153	0.047314498901367186	0.9312169799804687	-0.018273199081420898	0.03900040054321289	0.9532570190429688	-0.024094499588012696	0.02627829933166504	0.9834819946289063	0.008127599716186524	0.08306580352783204	0.9652109985351562	0.0009756259918212891	0.06950379943847657	0.976468994140625	-0.005746439933776855	0.05758359909057617	0.9859349975585937	-0.017898799896240235	0.03904690170288086	0.9989869995117188	-0.06465470123291016	0.016381099700927736	1.046510009765625
33	1.1	-0.0470984992980957	-0.08762419891357422	0.986176025390625	-0.04067449951171875	-0.06585050201416015	0.998989990234375	-0.048327499389648435	-0.04501539993286133	1.0173699951171875	-0.049376300811767575	-0.014144100189208985	1.0339000244140626	-0.02013599967956543	-0.02602350044250488	0.89589599609375	-0.024573299407958986	-0.023995399475097656	0.9184669799804688	-0.02871980094909668	-0.021416299819946288	0.9409840087890625	-0.03637350082397461	-0.01383590030670166	0.9762080078125	-0.022496000289916992	0.026308900833129884	0.8870360107421875	-0.029423599243164063	0.023189199447631835	0.9104559936523438	-0.03477370071411133	0.017848899841308594	0.9372479858398437	-0.03551589965820313	0.009427650451660156	0.9741300048828125	-0.006964620113372803	0.053789501190185544	0.91110302734375	-0.014536499977111816	0.04759550094604492	0.9312540283203125	-0.019214799880981445	0.03921530151367188	0.9532789916992187	-0.025013799667358397	0.026431600570678712	0.9833619995117188	0.006888360023498535	0.08331050109863282	0.9650989990234375	-5.2083101123571006e-05	0.06971640014648438	0.9763829956054687	-0.006733960151672364	0.057776298522949215	0.985947998046875	-0.01881089973449707	0.03917100143432617	0.998844970703125	-0.06565390014648438	0.016587099075317382	1.04647998046875
34	1.1333333333333333	-0.047922798156738285	-0.08702469635009766	0.9857479858398438	-0.04145859909057617	-0.06530560302734376	0.9987789916992188	-0.0490443000793457	-0.044574901580810546	1.0172100219726563	-0.05027119827270508	-0.013517600059509277	1.0338900146484375	-0.020746000289916994	-0.025036399841308593	0.8957630004882813	-0.025145200729370116	-0.023134700775146483	0.9183300170898437	-0.029281400680541993	-0.020659799575805663	0.9409010009765625	-0.03687910079956055	-0.013175900459289552	0.9761929931640625	-0.02266270065307617	0.027418100357055664	0.887135986328125	-0.029637399673461913	0.024201299667358397	0.9105399780273438	-0.03501269912719727	0.018673500061035155	0.937281982421875	-0.035871498107910155	0.010036700248718262	0.9741890258789062	-0.0072940998077392575	0.05467940139770508	0.9113880004882813	-0.014799400329589844	0.04839310073852539	0.9315	-0.019453699111938477	0.03989490127563477	0.9534149780273438	-0.025509899139404296	0.02703230094909668	0.98347802734375	0.006200349807739257	0.08406569671630859	0.9653809814453125	-0.0006246290206909181	0.07034590148925782	0.9766290283203125	-0.007214439868927002	0.058356098175048825	0.9861890258789062	-0.019414899826049804	0.039692298889160156	0.9991599731445312	-0.0663833999633789	0.01700659942626953	1.0464000244140625
35	1.1666666666666667	-0.047335498809814455	-0.08622820281982421	0.9855560302734375	-0.04105839920043945	-0.06449939727783204	0.9985449829101563	-0.048834598541259766	-0.04388840103149414	1.01697998046875	-0.050144699096679686	-0.012954099655151367	1.03375	-0.021171199798583985	-0.023587799072265624	0.8956110229492188	-0.025497100830078126	-0.02181920051574707	0.9181530151367188	-0.02953809928894043	-0.01946820068359375	0.9407239990234375	-0.037055400848388674	-0.012252900123596191	0.9760549926757812	-0.023090599060058593	0.028739999771118165	0.8873250122070313	-0.03010379981994629	0.02543589973449707	0.91060400390625	-0.03546220016479492	0.019803800582885743	0.9372830200195312	-0.03621220016479492	0.011046500205993652	0.9742630004882813	-0.007581550121307373	0.0559025993347168	0.9116439819335938	-0.015074299812316895	0.04956389999389649	0.9316129760742188	-0.019740699768066406	0.04097579956054687	0.9534609985351562	-0.025928899765014647	0.028001100540161132	0.983572021484375	0.00565516996383667	0.08515989685058593	0.9657520141601562	-0.00114752995967865	0.0713646011352539	0.9769019775390625	-0.007713119983673095	0.059340099334716796	0.9863519897460937	-0.019748600006103515	0.040635799407958986	0.9992379760742187	-0.06649749755859374	0.01756010055541992	1.0463599853515626
36	1.2	-0.04743389892578125	-0.08577760314941406	0.9857239990234375	-0.04117919921875	-0.06407389831542969	0.9987160034179687	-0.04900870132446289	-0.04344829940795898	1.0171799926757812	-0.05029759979248047	-0.012556099891662597	1.0339200439453125	-0.020731800079345702	-0.022976299285888672	0.895864990234375	-0.025127099990844726	-0.021260400772094727	0.9184169921875	-0.029324399948120118	-0.01892379951477051	0.9410130004882813	-0.037034801483154293	-0.01181879997253418	0.9763729858398438	-0.021804000854492186	0.029315200805664063	0.8878189697265625	-0.02922629928588867	0.026053199768066405	0.9109879760742188	-0.034909500122070315	0.020370899200439455	0.937489013671875	-0.036007900238037106	0.011528300285339356	0.9744089965820313	-0.0066745800971984865	0.05616080093383789	0.9122210083007812	-0.014402700424194335	0.04988159942626953	0.9320759887695312	-0.0191963996887207	0.0413202018737793	0.9538330078125	-0.025743000030517577	0.028438400268554688	0.9838469848632813	0.006366749763488768	0.0853770980834961	0.9663460083007812	-0.0006376820206642151	0.071677001953125	0.9774349975585938	-0.007356190204620362	0.059674598693847655	0.9868350219726563	-0.01951810073852539	0.040985500335693356	0.999655029296875	-0.06663800048828125	0.017992300033569338	1.0466199951171875
37	1.2333333333333334	-0.0467943000793457	-0.0855561981201172	0.9859760131835937	-0.040655399322509764	-0.06385530090332031	0.99902197265625	-0.0484635009765625	-0.04329719924926758	1.01747998046875	-0.0499380989074707	-0.012393199920654296	1.0343699951171874	-0.02030109977722168	-0.02256789970397949	0.8962379760742187	-0.024694700241088868	-0.020873899459838866	0.9188729858398438	-0.028869800567626953	-0.018594200134277344	0.9414500122070313	-0.03662329864501953	-0.01153320026397705	0.97677197265625	-0.021626800537109376	0.029868999481201173	0.8882940063476562	-0.02898080062866211	0.02649679946899414	0.9114530029296875	-0.034597400665283204	0.020766899108886717	0.9379559936523437	-0.035737098693847655	0.011798399925231934	0.9749249877929688	-0.0063708100318908695	0.05626789855957031	0.9127689819335938	-0.01413350009918213	0.050078800201416016	0.932541015625	-0.018981300354003906	0.04156930160522461	0.954322998046875	-0.025559499740600587	0.028681299209594727	0.9844110107421875	0.006363110065460205	0.08583139801025391	0.9669400024414062	-0.0006297559738159181	0.07203669738769532	0.9780260009765624	-0.0072755498886108395	0.06001060104370117	0.9873519897460937	-0.019437599182128906	0.04127270126342773	1.000219970703125	-0.0664186019897461	0.01811199951171875	1.0470899658203126
38	1.2666666666666666	-0.04608819961547852	-0.08565799713134765	0.986697998046875	-0.039895198822021485	-0.06390719985961914	0.999718017578125	-0.04793109893798828	-0.043292098999023435	1.01825	-0.04943170166015625	-0.012389699935913085	1.0349599609375	-0.01983580017089844	-0.02276460075378418	0.8967930297851563	-0.02425469970703125	-0.021062999725341796	0.919406005859375	-0.02841900062561035	-0.018765100479125975	0.9419979858398437	-0.03611989974975586	-0.011711700439453125	0.9773759765625	-0.021385799407958983	0.02997010040283203	0.8886380004882812	-0.02852939987182617	0.026393800735473632	0.9119439697265626	-0.034008201599121095	0.020563699722290038	0.938510986328125	-0.03533589935302734	0.011627799987792968	0.9756119995117187	-0.005452000141143799	0.055507099151611325	0.9131719970703125	-0.013410400390625	0.0494999008178711	0.9329829711914063	-0.018274499893188478	0.041177101135253906	0.9548660278320312	-0.02503420066833496	0.02858139991760254	0.9848740234375	0.007050320148468018	0.08553679656982421	0.9673499755859375	-1.6925500705838002e-05	0.07183860015869141	0.9784039916992188	-0.006817770004272461	0.0598572998046875	0.9878090209960938	-0.01904949951171875	0.04121340179443359	1.0006699829101562	-0.06606500244140626	0.01805780029296875	1.0476300048828124
39	1.3	-0.045868499755859375	-0.08605660247802735	0.9874509887695313	-0.0397036018371582	-0.06439189910888672	1.00047998046875	-0.047617401123046875	-0.04377920150756836	1.0189299926757813	-0.04905889892578125	-0.012785499572753906	1.0356199951171876	-0.019126899719238283	-0.023355199813842775	0.8975980224609375	-0.023589599609375	-0.021687599182128908	0.9201840209960938	-0.027831899642944337	-0.01936910057067871	0.9427670288085938	-0.0356161003112793	-0.012302200317382812	0.9781400146484375	-0.020815099716186523	0.029313499450683594	0.8891179809570312	-0.027648500442504883	0.02564739990234375	0.9125579833984375	-0.03312710189819336	0.01980649948120117	0.9391820068359376	-0.034715801239013674	0.010975700378417969	0.9762490234375	-0.004291150093078613	0.05403919982910156	0.9138049926757813	-0.012346199989318848	0.048269298553466795	0.93352001953125	-0.01736910057067871	0.04017380142211914	0.9555260009765625	-0.024387300491333006	0.027920299530029297	0.9855050048828125	0.008235159873962403	0.08443309783935547	0.96789599609375	0.000989889979362487	0.07088390350341797	0.9790130004882812	-0.0059139299392700195	0.059042999267578125	0.9883690185546875	-0.01848539924621582	0.04057590103149414	1.0013200073242188	-0.06568959808349609	0.017653099060058595	1.048219970703125
40	1.3333333333333333	-0.04532580184936524	-0.08716590118408203	0.9886909790039062	-0.03924420166015625	-0.06531529998779297	1.0016400146484374	-0.04717380142211914	-0.04464849853515625	1.0201199951171875	-0.048652698516845706	-0.013513699531555175	1.0366700439453125	-0.018529399871826172	-0.024902200698852538	0.8985759887695313	-0.023172399520874024	-0.02317210006713867	0.9210809936523437	-0.02755459976196289	-0.020834400177001954	0.9436300048828125	-0.035585800170898435	-0.013696399688720703	0.979052978515625	-0.01947760009765625	0.02609320068359375	0.8896849975585938	-0.026900400161743165	0.022926700592041015	0.9130830078125	-0.033042598724365234	0.01773069953918457	0.9396849975585938	-0.03499129867553711	0.00961575984954834	0.9767100219726562	-0.004408289909362793	0.051343700408935544	0.913676025390625	-0.012708000183105469	0.046090198516845704	0.933468017578125	-0.0179419002532959	0.03857080078125	0.9555889892578125	-0.024762100219726562	0.02674259948730469	0.9858629760742188	0.007777639865875244	0.08291419982910156	0.9670230102539062	0.000525053977966308	0.06955740356445313	0.9784920043945312	-0.006309989929199219	0.05788209915161133	0.9881090087890625	-0.01868400001525879	0.03961410140991211	1.0014299926757813	-0.06535990142822265	0.01694849967956543	1.0489300537109374
